<svg xmlns="http://www.w3.org/2000/svg" viewBox="0 0 780 500"><path fill="#006fcf" d="M40 0h700c22.1 0 40 17.9 40 40v420c0 22.1-17.9 40-40 40H40c-22.1 0-40-17.9-40-40V40C0 17.9 17.9 0 40 0z"/><path fill="#fff" d="M.3 235.7h37.4l8.4-19.5H65l8.4 19.5h73.7v-14.9l6.6 15h38.2l6.6-15.2v15.1h183.1l-.1-32h3.5c2.5.1 3.2.3 3.2 4.2v27.8h94.7v-7.5c7.6 3.9 19.5 7.5 35.1 7.5h39.8l8.5-19.5h18.9l8.3 19.5h76.8v-18.5l11.6 18.5h61.5V113.2h-60.9v14.5l-8.5-14.5h-62.5v14.5l-7.8-14.5h-84.4c-14.1 0-26.5 1.9-36.6 7.2v-7.2h-58.2v7.2c-6.4-5.4-15.1-7.2-24.8-7.2H187.2L173 144.8l-14.7-31.6h-67v14.5l-7.4-14.5H26.8L.2 171.4l.1 64.3zM236.6 218h-22.5l-.1-68.8-31.7 68.8H163l-31.9-68.9V218H86.6l-8.4-19.6H32.6L24.1 218H.3l39.2-87.8h32.6l37.3 83.2v-83.2h35.8l28.7 59.6 26.3-59.6h36.5l-.1 87.8zM70.7 180.2l-15-35-14.9 35h29.9zM326 218h-73.2v-87.8H326v18.3h-51.3v15.8h50.1v18h-50.1v17.5H326V218zm103.2-64.2c0 14-9.8 21.2-15.4 23.4 4.8 1.7 8.9 4.8 10.8 7.4 3.1 4.4 3.6 8.3 3.6 16.1V218h-22.1l-.1-11.1c0-5.3.5-12.9-3.5-17.1-3.2-3.1-8.1-3.8-16-3.8H363v32h-21.9v-87.8h50.4c11.2 0 19.5.3 26.5 4.2 7 3.9 11.2 9.6 11.2 19.4zm-27.7 13.1c-3 1.8-6.6 1.8-10.8 1.8H364v-19.5h27c3.8 0 7.8.2 10.4 1.6 2.8 1.3 4.6 4 4.6 7.8s-1.7 6.9-4.5 8.3zm62.8 51.1h-22.4v-87.8h22.4V218zm259.6 0h-31.1l-41.5-65.9V218h-44.6l-8.5-19.6h-45.5l-8.3 19.6h-25.6c-10.6 0-24.1-2.3-31.8-9.7-7.7-7.5-11.7-17.6-11.7-33.5 0-13 2.4-24.9 11.8-34.3 7.1-7 18.2-10.2 33.3-10.2h21.2V149h-20.8c-8 0-12.5 1.1-16.9 5.2-3.7 3.7-6.3 10.7-6.3 19.9 0 9.4 2 16.2 6 20.6 3.4 3.5 9.5 4.5 15.3 4.5h9.8l30.9-69.1h32.8l37.1 83.1v-83.1h33.4l38.5 61.2v-61.2h22.4l.1 87.9zm-133.2-37.8l-15.2-35-15.1 35h30.3zm189 178.1c-5.3 7.5-15.7 11.2-29.7 11.2h-42.3v-18.8h42.1c4.2 0 7.1-.5 8.9-2.2 1.7-1.5 2.6-3.6 2.6-5.7 0-2.6-1.1-4.6-2.7-5.8-1.6-1.3-3.9-2-7.7-2-20.6-.7-46.2.6-46.2-27.2 0-12.7 8.4-26.2 31.4-26.2h43.6v-17.5h-40.6c-12.2 0-21.1 2.8-27.4 7.2v-7.2h-60c-9.6 0-20.9 2.3-26.2 7.2v-7.2H518.4v7.2c-8.5-5.9-22.9-7.2-29.5-7.2h-70.7v7.2c-6.7-6.3-21.7-7.2-30.9-7.2h-79.1l-18.1 18.8-16.9-18.8H155.1v122.6H271l18.6-19.1 17.6 19.1 71.4.1V358h7c9.5.1 20.7-.2 30.5-4.3v33.1H475v-32h2.8c3.6 0 4 .1 4 3.6v28.3h179c11.4 0 23.2-2.8 29.8-7.8v7.8h56.8c11.8 0 23.4-1.6 32.1-5.6l.2-22.8zm-354.9-47.2c0 24.4-19 29.4-38.2 29.4h-27.3V370h-42.6l-27-29.1-28 29.1h-86.8v-87.9H263l27 28.8 27.9-28.8h70c17.3.1 36.9 4.7 36.9 29zm-174.3 40.5h-53.9v-17.5h48.1v-17.9h-48.1v-16h54.9l24 25.6-25 25.8zm86.8 10l-33.6-35.8 33.6-34.6v70.4zm49.8-39h-28.3v-22.4h28.6c7.9 0 13.4 3.1 13.4 10.8 0 7.5-5.3 11.6-13.7 11.6zm148.4-40.4h73.1v18.2h-51.3v16h50.1v17.9h-50.1v17.5l51.3.1V370h-73.1v-87.8zm-28.2 47c4.9 1.7 8.9 4.8 10.7 7.4 3.1 4.3 3.5 8.3 3.6 16V370h-22v-11c0-5.3.5-13.1-3.5-17.2-3.2-3.1-8.1-3.9-16.1-3.9h-23.4V370h-22v-87.9h50.6c11.1 0 19.2.5 26.4 4.1 6.9 4 11.3 9.5 11.3 19.5 0 14.2-9.8 21.3-15.6 23.5zM495 318.1c-2.9 1.7-6.6 1.8-10.8 1.8h-26.6v-19.7h27c3.9 0 7.8.1 10.5 1.6 2.8 1.4 4.5 4.1 4.5 7.9-.1 3.7-1.8 6.8-4.6 8.4zm197.8 5.6c4.3 4.2 6.6 9.6 6.6 18.6 0 18.9-12.3 27.7-34.4 27.7h-42.7v-18.8h42.5c4.2 0 7.1-.5 9-2.2 1.5-1.4 2.6-3.3 2.6-5.7 0-2.6-1.2-4.6-2.7-5.8-1.7-1.3-4-1.9-7.8-1.9-20.5-.7-46.2.6-46.2-27.2 0-12.7 8.4-26.2 31.3-26.2h43.9v18.7h-40.2c-4 0-6.6.1-8.8 1.6-2.4 1.4-3.3 3.5-3.3 6.3 0 3.3 2 5.6 4.8 6.5 2.3.8 4.8 1 8.5 1l11.8.3c12 .3 20.1 2.3 25.1 7.1zm86.9-23.5h-39.9c-4 0-6.6.1-8.9 1.6-2.3 1.4-3.2 3.5-3.2 6.3 0 3.3 2 5.6 4.8 6.5 2.3.8 4.8 1 8.4 1l11.9.3c12 .3 20 2.3 24.9 7.1.9.7 1.4 1.4 2 2.2v-25z"/></svg>