<svg xmlns="http://www.w3.org/2000/svg" viewBox="0 0 780 500"><path d="M40 0h700c22.1 0 40 17.9 40 40v420c0 22.1-17.9 40-40 40H40c-22.1 0-40-17.9-40-40V40C0 17.9 17.9 0 40 0z"/><path fill="#7673C0" d="M311.5 108.9h157.1v282.2H311.5z"/><path fill="#EB001B" d="M321.4 250c0-57.3 26.8-108.3 68.6-141.1-30.5-24-69.1-38.4-110.9-38.4C180 70.5 99.6 150.9 99.6 250S180 429.5 279.1 429.5c41.9 0 80.4-14.3 110.9-38.4-41.7-32.8-68.6-83.8-68.6-141.1z"/><path fill="#00A1DF" d="M663.3 361.2v-5.8h2.3v-1.2h-5.9v1.2h2.3v5.8h1.3zm11.5 0v-7H673l-2.1 4.8-2.1-4.8H667v7h1.3V356l2 4.5h1.3l2-4.5v5.3l1.2-.1zM680.4 250c0 99.1-80.4 179.5-179.5 179.5-41.9 0-80.4-14.3-110.9-38.4 41.8-32.9 68.6-83.9 68.6-141.1 0-57.3-26.8-108.3-68.6-141.1 30.5-24 69.1-38.4 110.9-38.4 99.2 0 179.5 80.4 179.5 179.5z"/></svg>