<svg xmlns="http://www.w3.org/2000/svg" viewBox="0 0 780 500"><path d="M40 0h700c22.1 0 40 17.9 40 40v420c0 22.1-17.9 40-40 40H40c-22.1 0-40-17.9-40-40V40C0 17.9 17.9 0 40 0z"/><path fill="#FF5F00" d="M303.7 108.9h172.8v282.2H303.7z"/><path fill="#EB001B" d="M321.4 250c0-55.1 25.2-107.1 68.5-141.1-77.9-61.2-190.7-47.7-252 30.2s-47.7 190.7 30.2 252c65.1 51.1 156.7 51.1 221.8 0-43.2-34-68.5-86-68.5-141.1z"/><path fill="#F79E1B" d="M663.2 361.2v-5.8h2.5v-1.2h-5.9v1.2h2.3v5.8h1.1zm11.5 0v-7h-1.8l-2.1 5-2.1-5H667v7h1.3v-5.3l1.9 4.5h1.3l1.9-4.5v5.3h1.3zM680.4 250c0 99.1-80.4 179.5-179.5 179.5-40.2 0-79.3-13.5-110.9-38.4 77.9-61.2 91.5-174.1 30.2-252-8.8-11.2-19-21.4-30.2-30.2 77.9-61.3 190.7-47.8 252 30.2 24.9 31.6 38.4 70.6 38.4 110.9z"/></svg>