<svg xmlns="http://www.w3.org/2000/svg" viewBox="0 0 780 500"><path fill="#0E4595" d="M40 0h700c22.1 0 40 17.9 40 40v420c0 22.1-17.9 40-40 40H40c-22.1 0-40-17.9-40-40V40C0 17.9 17.9 0 40 0z"/><path fill="#FFF" d="M293.2 348.7L326.6 153H380l-33.4 195.8h-53.4zm246.1-191.5c-10.6-4-27.1-8.2-47.8-8.2-52.7 0-89.9 26.6-90.2 64.6-.3 28.1 26.5 43.8 46.8 53.2 20.8 9.6 27.8 15.7 27.7 24.3-.1 13.1-16.6 19.1-31.9 19.1-21.4 0-32.7-3-50.2-10.3l-6.9-3.1-7.5 43.8c12.5 5.5 35.5 10.2 59.4 10.4 56.1 0 92.5-26.2 92.9-66.9.2-22.3-14-39.2-44.8-53.2-18.6-9.1-30.1-15.1-30-24.3 0-8.1 9.7-16.8 30.6-16.8 17.4-.3 30.1 3.5 39.9 7.5l4.8 2.3 7.2-42.4m137.3-4.2h-41.2c-12.8 0-22.3 3.5-27.9 16.2l-79.2 179.4h56s9.2-24.1 11.2-29.4c6.1 0 60.6.1 68.3.1 1.6 6.9 6.5 29.3 6.5 29.3h49.5L676.6 153zm-65.4 126.4l21.3-54.7c-.3.5 4.4-11.3 7.1-18.7l3.6 16.9s10.2 46.7 12.4 56.5h-44.4zM247.9 153l-52.2 133.5-5.6-27.1c-9.7-31.3-40-65.2-73.9-82.1L164 348.4l56.5-.1 84-195.4-56.6.1"/><path fill="#F2AE14" d="M146.9 153h-86l-.7 4.1c66.9 16.2 111.2 55.4 129.6 102.4l-18.7-90c-3.2-12.4-12.6-16.1-24.2-16.5"/></svg>